<svg xmlns="http://www.w3.org/2000/svg" width="640" height="420"><rect width="100%" height="100%" fill="white"/><text x="320.0" y="25" text-anchor="middle" font-size="18">Breakthrough Pv</text><line x1="55" y1="365" x2="585" y2="55" stroke="#d62728" stroke-width="2"/><line x1="55" y1="365" x2="585" y2="365" stroke="black"/><line x1="55" y1="55" x2="55" y2="365" stroke="black"/><text x="320.0" y="408" text-anchor="middle">Simulator truth</text><text x="18" y="210.0" transform="rotate(-90 18,210.0)" text-anchor="middle">Surrogate prediction</text><circle cx="418.1" cy="153.4" r="4" fill="#1f77b4" opacity="0.72"/>
<circle cx="107.2" cy="353.1" r="4" fill="#1f77b4" opacity="0.72"/>
<circle cx="409.4" cy="154.8" r="4" fill="#1f77b4" opacity="0.72"/>
<circle cx="226.2" cy="236.1" r="4" fill="#1f77b4" opacity="0.72"/>
<circle cx="472.9" cy="142.3" r="4" fill="#1f77b4" opacity="0.72"/>
<circle cx="209.7" cy="255.4" r="4" fill="#1f77b4" opacity="0.72"/>
<circle cx="325.4" cy="189.5" r="4" fill="#1f77b4" opacity="0.72"/>
<circle cx="200.7" cy="269.8" r="4" fill="#1f77b4" opacity="0.72"/>
<circle cx="88.8" cy="356.7" r="4" fill="#1f77b4" opacity="0.72"/>
<circle cx="545.9" cy="119.2" r="4" fill="#1f77b4" opacity="0.72"/>
<circle cx="103.3" cy="365.0" r="4" fill="#1f77b4" opacity="0.72"/>
<circle cx="315.7" cy="194.0" r="4" fill="#1f77b4" opacity="0.72"/>
<circle cx="103.9" cy="351.0" r="4" fill="#1f77b4" opacity="0.72"/>
<circle cx="252.2" cy="228.6" r="4" fill="#1f77b4" opacity="0.72"/>
<circle cx="403.7" cy="159.4" r="4" fill="#1f77b4" opacity="0.72"/>
<circle cx="96.8" cy="362.6" r="4" fill="#1f77b4" opacity="0.72"/>
<circle cx="117.7" cy="337.4" r="4" fill="#1f77b4" opacity="0.72"/>
<circle cx="335.1" cy="190.8" r="4" fill="#1f77b4" opacity="0.72"/>
<circle cx="469.7" cy="137.0" r="4" fill="#1f77b4" opacity="0.72"/>
<circle cx="213.4" cy="256.4" r="4" fill="#1f77b4" opacity="0.72"/>
<circle cx="208.1" cy="264.1" r="4" fill="#1f77b4" opacity="0.72"/>
<circle cx="384.1" cy="160.2" r="4" fill="#1f77b4" opacity="0.72"/>
<circle cx="473.8" cy="134.4" r="4" fill="#1f77b4" opacity="0.72"/>
<circle cx="202.4" cy="259.2" r="4" fill="#1f77b4" opacity="0.72"/>
<circle cx="543.6" cy="115.4" r="4" fill="#1f77b4" opacity="0.72"/>
<circle cx="259.8" cy="230.0" r="4" fill="#1f77b4" opacity="0.72"/>
<circle cx="100.7" cy="348.8" r="4" fill="#1f77b4" opacity="0.72"/>
<circle cx="284.8" cy="212.3" r="4" fill="#1f77b4" opacity="0.72"/>
<circle cx="150.4" cy="301.8" r="4" fill="#1f77b4" opacity="0.72"/>
<circle cx="220.7" cy="249.3" r="4" fill="#1f77b4" opacity="0.72"/>
<circle cx="577.8" cy="109.3" r="4" fill="#1f77b4" opacity="0.72"/>
<circle cx="231.8" cy="237.4" r="4" fill="#1f77b4" opacity="0.72"/>
<circle cx="410.0" cy="154.2" r="4" fill="#1f77b4" opacity="0.72"/>
<circle cx="121.3" cy="332.1" r="4" fill="#1f77b4" opacity="0.72"/>
<circle cx="190.9" cy="272.6" r="4" fill="#1f77b4" opacity="0.72"/>
<circle cx="249.8" cy="229.3" r="4" fill="#1f77b4" opacity="0.72"/>
<circle cx="242.7" cy="225.8" r="4" fill="#1f77b4" opacity="0.72"/>
<circle cx="206.3" cy="258.5" r="4" fill="#1f77b4" opacity="0.72"/>
<circle cx="585.0" cy="110.6" r="4" fill="#1f77b4" opacity="0.72"/>
<circle cx="98.5" cy="362.3" r="4" fill="#1f77b4" opacity="0.72"/>
<circle cx="159.3" cy="296.0" r="4" fill="#1f77b4" opacity="0.72"/>
<circle cx="106.6" cy="359.6" r="4" fill="#1f77b4" opacity="0.72"/>
<circle cx="552.8" cy="120.9" r="4" fill="#1f77b4" opacity="0.72"/>
<circle cx="261.6" cy="226.6" r="4" fill="#1f77b4" opacity="0.72"/>
<circle cx="120.2" cy="337.4" r="4" fill="#1f77b4" opacity="0.72"/></svg>