<svg xmlns="http://www.w3.org/2000/svg" width="640" height="420"><rect width="100%" height="100%" fill="white"/><text x="320.0" y="25" text-anchor="middle" font-size="18">Terminal Watercut</text><line x1="55" y1="365" x2="585" y2="55" stroke="#d62728" stroke-width="2"/><line x1="55" y1="365" x2="585" y2="365" stroke="black"/><line x1="55" y1="55" x2="55" y2="365" stroke="black"/><text x="320.0" y="408" text-anchor="middle">Simulator truth</text><text x="18" y="210.0" transform="rotate(-90 18,210.0)" text-anchor="middle">Surrogate prediction</text><circle cx="320.0" cy="210.0" r="4" fill="#1f77b4" opacity="0.72"/>
<circle cx="320.0" cy="55.0" r="4" fill="#1f77b4" opacity="0.72"/>
<circle cx="320.0" cy="210.0" r="4" fill="#1f77b4" opacity="0.72"/>
<circle cx="585.0" cy="55.0" r="4" fill="#1f77b4" opacity="0.72"/>
<circle cx="320.0" cy="210.0" r="4" fill="#1f77b4" opacity="0.72"/>
<circle cx="320.0" cy="365.0" r="4" fill="#1f77b4" opacity="0.72"/>
<circle cx="320.0" cy="210.0" r="4" fill="#1f77b4" opacity="0.72"/>
<circle cx="320.0" cy="365.0" r="4" fill="#1f77b4" opacity="0.72"/>
<circle cx="320.0" cy="210.0" r="4" fill="#1f77b4" opacity="0.72"/>
<circle cx="320.0" cy="365.0" r="4" fill="#1f77b4" opacity="0.72"/>
<circle cx="320.0" cy="210.0" r="4" fill="#1f77b4" opacity="0.72"/>
<circle cx="320.0" cy="365.0" r="4" fill="#1f77b4" opacity="0.72"/>
<circle cx="320.0" cy="210.0" r="4" fill="#1f77b4" opacity="0.72"/>
<circle cx="320.0" cy="210.0" r="4" fill="#1f77b4" opacity="0.72"/>
<circle cx="320.0" cy="55.0" r="4" fill="#1f77b4" opacity="0.72"/>
<circle cx="320.0" cy="365.0" r="4" fill="#1f77b4" opacity="0.72"/>
<circle cx="320.0" cy="210.0" r="4" fill="#1f77b4" opacity="0.72"/>
<circle cx="55.0" cy="365.0" r="4" fill="#1f77b4" opacity="0.72"/>
<circle cx="320.0" cy="210.0" r="4" fill="#1f77b4" opacity="0.72"/>
<circle cx="320.0" cy="365.0" r="4" fill="#1f77b4" opacity="0.72"/>
<circle cx="55.0" cy="210.0" r="4" fill="#1f77b4" opacity="0.72"/>
<circle cx="320.0" cy="210.0" r="4" fill="#1f77b4" opacity="0.72"/>
<circle cx="585.0" cy="365.0" r="4" fill="#1f77b4" opacity="0.72"/>
<circle cx="320.0" cy="55.0" r="4" fill="#1f77b4" opacity="0.72"/>
<circle cx="320.0" cy="365.0" r="4" fill="#1f77b4" opacity="0.72"/>
<circle cx="320.0" cy="210.0" r="4" fill="#1f77b4" opacity="0.72"/>
<circle cx="320.0" cy="365.0" r="4" fill="#1f77b4" opacity="0.72"/>
<circle cx="320.0" cy="365.0" r="4" fill="#1f77b4" opacity="0.72"/>
<circle cx="585.0" cy="210.0" r="4" fill="#1f77b4" opacity="0.72"/>
<circle cx="585.0" cy="210.0" r="4" fill="#1f77b4" opacity="0.72"/>
<circle cx="55.0" cy="210.0" r="4" fill="#1f77b4" opacity="0.72"/>
<circle cx="320.0" cy="210.0" r="4" fill="#1f77b4" opacity="0.72"/>
<circle cx="320.0" cy="210.0" r="4" fill="#1f77b4" opacity="0.72"/>
<circle cx="585.0" cy="365.0" r="4" fill="#1f77b4" opacity="0.72"/>
<circle cx="320.0" cy="210.0" r="4" fill="#1f77b4" opacity="0.72"/>
<circle cx="320.0" cy="365.0" r="4" fill="#1f77b4" opacity="0.72"/>
<circle cx="320.0" cy="365.0" r="4" fill="#1f77b4" opacity="0.72"/>
<circle cx="320.0" cy="210.0" r="4" fill="#1f77b4" opacity="0.72"/>
<circle cx="320.0" cy="210.0" r="4" fill="#1f77b4" opacity="0.72"/>
<circle cx="320.0" cy="55.0" r="4" fill="#1f77b4" opacity="0.72"/>
<circle cx="320.0" cy="365.0" r="4" fill="#1f77b4" opacity="0.72"/>
<circle cx="320.0" cy="365.0" r="4" fill="#1f77b4" opacity="0.72"/>
<circle cx="320.0" cy="55.0" r="4" fill="#1f77b4" opacity="0.72"/>
<circle cx="320.0" cy="365.0" r="4" fill="#1f77b4" opacity="0.72"/>
<circle cx="320.0" cy="365.0" r="4" fill="#1f77b4" opacity="0.72"/></svg>