<svg xmlns="http://www.w3.org/2000/svg" width="640" height="420"><rect width="100%" height="100%" fill="white"/><text x="320" y="25" text-anchor="middle" font-size="18">Water-cut evolution for a high-recovery case</text><polyline points="40.0,360.0 43.3,360.0 46.6,360.0 49.9,360.0 53.3,360.0 56.6,360.0 59.9,360.0 63.2,360.0 66.5,360.0 69.8,360.0 73.1,360.0 76.4,360.0 79.8,360.0 83.1,360.0 86.4,360.0 89.7,360.0 93.0,360.0 96.3,360.0 99.6,360.0 103.0,360.0 106.3,360.0 109.6,360.0 112.9,360.0 116.2,360.0 119.5,360.0 122.8,360.0 126.2,360.0 129.5,360.0 132.8,360.0 136.1,360.0 139.4,360.0 142.7,360.0 146.0,360.0 149.3,360.0 152.7,360.0 156.0,360.0 159.3,360.0 162.6,360.0 165.9,360.0 169.2,360.0 172.5,360.0 175.9,360.0 179.2,360.0 182.5,360.0 185.8,360.0 189.1,360.0 192.4,360.0 195.7,360.0 199.1,360.0 202.4,360.0 205.7,360.0 209.0,360.0 212.3,360.0 215.6,360.0 218.9,360.0 222.2,360.0 225.6,360.0 228.9,360.0 232.2,360.0 235.5,360.0 238.8,360.0 242.1,360.0 245.4,360.0 248.8,360.0 252.1,360.0 255.4,360.0 258.7,360.0 262.0,360.0 265.3,360.0 268.6,360.0 272.0,360.0 275.3,360.0 278.6,360.0 281.9,360.0 285.2,360.0 288.5,360.0 291.8,360.0 295.1,360.0 298.5,360.0 301.8,360.0 305.1,360.0 308.4,360.0 311.7,360.0 315.0,360.0 318.3,360.0 321.7,360.0 325.0,360.0 328.3,360.0 331.6,360.0 334.9,360.0 338.2,360.0 341.5,360.0 344.9,360.0 348.2,360.0 351.5,360.0 354.8,360.0 358.1,60.0 361.4,60.0 364.7,60.0 368.0,60.0 371.4,60.0 374.7,60.0 378.0,60.0 381.3,60.0 384.6,60.0 387.9,60.0 391.2,60.0 394.6,60.0 397.9,60.0 401.2,60.0 404.5,60.0 407.8,60.0 411.1,60.0 414.4,60.0 417.8,60.0 421.1,60.0 424.4,60.0 427.7,60.0 431.0,60.0 434.3,60.0 437.6,60.0 440.9,60.0 444.3,60.0 447.6,60.0 450.9,60.0 454.2,60.0 457.5,60.0 460.8,60.0 464.1,60.0 467.5,60.0 470.8,60.0 474.1,60.0 477.4,60.0 480.7,60.0 484.0,60.0 487.3,60.0 490.7,60.0 494.0,60.0 497.3,60.0 500.6,60.0 503.9,60.0 507.2,60.0 510.5,60.0 513.8,60.0 517.2,60.0 520.5,60.0 523.8,60.0 527.1,60.0 530.4,60.0 533.7,60.0 537.0,60.0 540.4,60.0 543.7,60.0 547.0,60.0 550.3,60.0 553.6,60.0 556.9,60.0 560.2,60.0 563.6,60.0 566.9,60.0 570.2,60.0 573.5,60.0 576.8,60.0 580.1,60.0 583.4,60.0 586.7,60.0 590.1,60.0 593.4,60.0 596.7,60.0 600.0,60.0" fill="none" stroke="#2ca02c" stroke-width="3"/><line x1="40" y1="360" x2="600" y2="360" stroke="black"/><line x1="40" y1="60" x2="40" y2="360" stroke="black"/><text x="320" y="405" text-anchor="middle">Time step</text><text x="18" y="210" transform="rotate(-90 18,210)" text-anchor="middle">Water cut</text></svg>